<?xml version="1.0" encoding="UTF-8"?>
<!DOCTYPE svg PUBLIC "-//W3C//DTD SVG 1.1//EN" "http://www.w3.org/Graphics/SVG/1.1/DTD/svg11.dtd">
<svg xmlns="http://www.w3.org/2000/svg" version="1.1" width="119px" height="119px" style="shape-rendering:geometricPrecision; text-rendering:geometricPrecision; image-rendering:optimizeQuality; fill-rule:evenodd; clip-rule:evenodd" xmlns:xlink="http://www.w3.org/1999/xlink">
<g><path style="opacity:0.131" fill="#fcfcfc" d="M 118.5,9.5 C 118.5,22.8333 118.5,36.1667 118.5,49.5C 111.346,54.403 103.346,56.403 94.5,55.5C 94.8196,73.2137 94.4863,90.8804 93.5,108.5C 80.8508,109.499 68.1842,109.832 55.5,109.5C 54.7892,103.99 54.7892,98.6569 55.5,93.5C 55.3284,94.4916 55.6618,95.1583 56.5,95.5C 56.8333,96.8333 57.1667,96.8333 57.5,95.5C 58.5,96.1667 59.5,96.8333 60.5,97.5C 61.5137,98.6737 62.847,99.3404 64.5,99.5C 64.5,101.5 64.5,103.5 64.5,105.5C 71.1667,105.5 77.8333,105.5 84.5,105.5C 85.4971,86.0071 85.8304,66.3404 85.5,46.5C 91.358,46.8222 97.0247,46.4889 102.5,45.5C 107.951,44.3051 111.451,40.9717 113,35.5C 113.667,31.1667 113.667,26.8333 113,22.5C 111.5,18.3333 108.667,15.5 104.5,14C 91.1708,13.5001 77.8375,13.3334 64.5,13.5C 64.5,14.5 64.5,15.5 64.5,16.5C 62.847,16.6596 61.5137,17.3263 60.5,18.5C 59.5,19.1667 58.5,19.8333 57.5,20.5C 57.1667,19.1667 56.8333,19.1667 56.5,20.5C 55.6618,20.8417 55.3284,21.5084 55.5,22.5C 54.8757,18.3515 54.8757,14.0182 55.5,9.5C 76.5,9.5 97.5,9.5 118.5,9.5 Z"/></g>
<g><path style="opacity:1" fill="#323440" d="M 102.5,45.5 C 96.5,45.5 90.5,45.5 84.5,45.5C 84.5,65.1667 84.5,84.8333 84.5,104.5C 78.1667,104.5 71.8333,104.5 65.5,104.5C 65.5,103.167 65.5,101.833 65.5,100.5C 66.791,100.737 67.791,100.404 68.5,99.5C 77.7685,95.6811 79.9352,89.3478 75,80.5C 73.0065,79.086 70.8398,78.086 68.5,77.5C 67.791,76.596 66.791,76.2627 65.5,76.5C 65.5,64.1667 65.5,51.8333 65.5,39.5C 66.791,39.7373 67.791,39.404 68.5,38.5C 75.9237,36.3376 78.7571,31.3376 77,23.5C 74.5134,18.1733 70.3468,15.8399 64.5,16.5C 64.5,15.5 64.5,14.5 64.5,13.5C 77.8375,13.3334 91.1708,13.5001 104.5,14C 108.667,15.5 111.5,18.3333 113,22.5C 113.667,26.8333 113.667,31.1667 113,35.5C 111.451,40.9717 107.951,44.3051 102.5,45.5 Z"/></g>
<g><path style="opacity:1" fill="#f6f6f7" d="M 64.5,16.5 C 70.3468,15.8399 74.5134,18.1733 77,23.5C 78.7571,31.3376 75.9237,36.3376 68.5,38.5C 67.1667,38.5 65.8333,38.5 64.5,38.5C 64.5,31.1667 64.5,23.8333 64.5,16.5 Z"/></g>
<g><path style="opacity:1" fill="#63656d" d="M 64.5,16.5 C 64.5,23.8333 64.5,31.1667 64.5,38.5C 62.6203,38.7709 61.287,38.1042 60.5,36.5C 60.5756,30.1915 60.5756,24.1915 60.5,18.5C 61.5137,17.3263 62.847,16.6596 64.5,16.5 Z"/></g>
<g><path style="opacity:1" fill="#444651" d="M 60.5,18.5 C 60.5756,24.1915 60.5756,30.1915 60.5,36.5C 59.2223,36.2178 58.2223,35.5511 57.5,34.5C 56.0712,31.6916 55.4045,28.6916 55.5,25.5C 55.5,24.5 55.5,23.5 55.5,22.5C 56.3382,22.1583 56.6716,21.4916 56.5,20.5C 56.8333,20.5 57.1667,20.5 57.5,20.5C 58.5,19.8333 59.5,19.1667 60.5,18.5 Z"/></g>
<g><path style="opacity:0.866" fill="#4e5679" d="M 55.5,25.5 C 55.4045,28.6916 56.0712,31.6916 57.5,34.5C 57.1667,34.5 56.8333,34.5 56.5,34.5C 56.1667,33.1667 55.8333,33.1667 55.5,34.5C 54.8333,34.5 54.5,34.8333 54.5,35.5C 46.829,39.3327 39.4957,43.666 32.5,48.5C 32.1667,48.5 31.8333,48.5 31.5,48.5C 30.8333,48.5 30.5,48.8333 30.5,49.5C 30.1667,49.5 29.8333,49.5 29.5,49.5C 27.1737,50.1447 25.507,51.478 24.5,53.5C 23.5,51.8333 22.1667,50.5 20.5,49.5C 22.674,49.2503 24.3406,48.2503 25.5,46.5C 26.1667,46.5 26.5,46.1667 26.5,45.5C 27.4916,45.6716 28.1583,45.3382 28.5,44.5C 29.1667,44.5 29.5,44.1667 29.5,43.5C 36.9411,39.6102 44.2745,35.4436 51.5,31C 53.4682,29.5385 54.8016,27.7052 55.5,25.5 Z"/></g>
<g><path style="opacity:0.12" fill="#fdfdfd" d="M 55.5,34.5 C 55.8333,34.5 56.1667,34.5 56.5,34.5C 56.8333,35.8333 57.1667,35.8333 57.5,34.5C 58.2223,35.5511 59.2223,36.2178 60.5,36.5C 61.287,38.1042 62.6203,38.7709 64.5,38.5C 64.5,51.5 64.5,64.5 64.5,77.5C 63.209,77.2627 62.209,77.596 61.5,78.5C 59.8595,79.147 58.5261,80.147 57.5,81.5C 57.1667,80.1667 56.8333,80.1667 56.5,81.5C 55.8333,81.5 55.1667,81.5 54.5,81.5C 54.5,66.1667 54.5,50.8333 54.5,35.5C 55.1667,35.5 55.5,35.1667 55.5,34.5 Z"/></g>
<g><path style="opacity:0.095" fill="#fcfcfc" d="M 29.5,43.5 C 28.8333,43.5 28.5,43.8333 28.5,44.5C 27.5084,44.3284 26.8417,44.6618 26.5,45.5C 25.8333,45.5 25.5,45.8333 25.5,46.5C 24.3406,48.2503 22.674,49.2503 20.5,49.5C 9.2095,46.6318 3.7095,50.9652 4,62.5C 7.69337,70.6131 13.5267,72.6131 21.5,68.5C 24.089,68.461 26.089,69.461 27.5,71.5C 27.5,72.1667 27.8333,72.5 28.5,72.5C 28.8417,73.3382 29.5084,73.6716 30.5,73.5C 29.6411,76.4521 27.6411,78.2854 24.5,79C 15.7875,81.3462 7.45413,80.5128 -0.5,76.5C -0.5,65.1667 -0.5,53.8333 -0.5,42.5C 7.78083,38.285 16.4475,37.4516 25.5,40C 27.3237,40.66 28.657,41.8267 29.5,43.5 Z"/></g>
<g><path style="opacity:0.835" fill="#6b6c75" d="M 64.5,38.5 C 65.8333,38.5 67.1667,38.5 68.5,38.5C 67.791,39.404 66.791,39.7373 65.5,39.5C 65.5,51.8333 65.5,64.1667 65.5,76.5C 66.791,76.2627 67.791,76.596 68.5,77.5C 67.1667,77.5 65.8333,77.5 64.5,77.5C 64.5,64.5 64.5,51.5 64.5,38.5 Z"/></g>
<g><path style="opacity:0.086" fill="#f9f9fa" d="M 31.5,48.5 C 31.8333,49.8333 32.1667,49.8333 32.5,48.5C 33.5862,48.62 34.2528,49.2867 34.5,50.5C 36.105,57.0122 35.7716,63.3455 33.5,69.5C 32.8333,69.5 32.5,69.1667 32.5,68.5C 32.1667,67.1667 31.8333,67.1667 31.5,68.5C 28.845,67.503 26.845,65.8363 25.5,63.5C 25.7471,60.0613 25.4137,56.728 24.5,53.5C 25.507,51.478 27.1737,50.1447 29.5,49.5C 29.8333,50.8333 30.1667,50.8333 30.5,49.5C 30.5,48.8333 30.8333,48.5 31.5,48.5 Z"/></g>
<g><path style="opacity:1" fill="#333541" d="M 20.5,49.5 C 22.1667,50.5 23.5,51.8333 24.5,53.5C 25.4137,56.728 25.7471,60.0613 25.5,63.5C 24.407,65.3492 23.0737,67.0158 21.5,68.5C 13.5267,72.6131 7.69337,70.6131 4,62.5C 3.7095,50.9652 9.2095,46.6318 20.5,49.5 Z"/></g>
<g><path style="opacity:0.518" fill="#cacbce" d="M 102.5,45.5 C 97.0247,46.4889 91.358,46.8222 85.5,46.5C 85.8304,66.3404 85.4971,86.0071 84.5,105.5C 84.5,105.167 84.5,104.833 84.5,104.5C 84.5,84.8333 84.5,65.1667 84.5,45.5C 90.5,45.5 96.5,45.5 102.5,45.5 Z"/></g>
<g><path style="opacity:0.864" fill="#4d567a" d="M 25.5,63.5 C 26.845,65.8363 28.845,67.503 31.5,68.5C 31.8333,68.5 32.1667,68.5 32.5,68.5C 32.5,69.1667 32.8333,69.5 33.5,69.5C 40.5,73.5 47.5,77.5 54.5,81.5C 55.1667,82.8333 55.8333,82.8333 56.5,81.5C 56.8333,81.5 57.1667,81.5 57.5,81.5C 55.877,84.2153 55.2104,87.2153 55.5,90.5C 54.7515,89.469 54.0848,88.3024 53.5,87C 45.8058,82.4884 38.1391,77.9884 30.5,73.5C 30.1583,72.6618 29.4916,72.3284 28.5,72.5C 27.8333,72.5 27.5,72.1667 27.5,71.5C 26.089,69.461 24.089,68.461 21.5,68.5C 23.0737,67.0158 24.407,65.3492 25.5,63.5 Z"/></g>
<g><path style="opacity:1" fill="#f7f7f7" d="M 64.5,77.5 C 65.8333,77.5 67.1667,77.5 68.5,77.5C 70.8398,78.086 73.0065,79.086 75,80.5C 79.9352,89.3478 77.7685,95.6811 68.5,99.5C 67.1667,99.5 65.8333,99.5 64.5,99.5C 64.5,92.1667 64.5,84.8333 64.5,77.5 Z"/></g>
<g><path style="opacity:1" fill="#62636c" d="M 61.5,78.5 C 62.209,77.596 63.209,77.2627 64.5,77.5C 64.5,84.8333 64.5,92.1667 64.5,99.5C 62.847,99.3404 61.5137,98.6737 60.5,97.5C 60.4218,92.1335 60.5885,86.4668 61,80.5C 62.3803,79.7445 62.547,79.0778 61.5,78.5 Z"/></g>
<g><path style="opacity:1" fill="#42434e" d="M 61.5,78.5 C 62.547,79.0778 62.3803,79.7445 61,80.5C 60.5885,86.4668 60.4218,92.1335 60.5,97.5C 59.5,96.8333 58.5,96.1667 57.5,95.5C 57.1667,95.5 56.8333,95.5 56.5,95.5C 56.6716,94.5084 56.3382,93.8417 55.5,93.5C 55.5,92.5 55.5,91.5 55.5,90.5C 55.2104,87.2153 55.877,84.2153 57.5,81.5C 58.5261,80.147 59.8595,79.147 61.5,78.5 Z"/></g>
<g><path style="opacity:0.725" fill="#7c7c84" d="M 64.5,99.5 C 65.8333,99.5 67.1667,99.5 68.5,99.5C 67.791,100.404 66.791,100.737 65.5,100.5C 65.5,101.833 65.5,103.167 65.5,104.5C 71.8333,104.5 78.1667,104.5 84.5,104.5C 84.5,104.833 84.5,105.167 84.5,105.5C 77.8333,105.5 71.1667,105.5 64.5,105.5C 64.5,103.5 64.5,101.5 64.5,99.5 Z"/></g>
</svg>
